<svg width="19" height="17" viewBox="0 0 19 17" fill="none" xmlns="http://www.w3.org/2000/svg">
<path d="M12.4584 4.33333C12.4584 3.55836 12.4584 3.17087 12.3732 2.85295C12.142 1.99022 11.4681 1.31635 10.6054 1.08519C10.2875 1 9.9 1 9.12502 1C8.35004 1 7.96256 1 7.64464 1.08519C6.78191 1.31635 6.10804 1.99022 5.87687 2.85295C5.79169 3.17087 5.79169 3.55836 5.79169 4.33333M3.45835 16H14.7917C15.7251 16 16.1918 16 16.5483 15.8183C16.8619 15.6586 17.1169 15.4036 17.2767 15.09C17.4584 14.7335 17.4584 14.2668 17.4584 13.3333V7C17.4584 6.06658 17.4584 5.59987 17.2767 5.24335C17.1169 4.92975 16.8619 4.67478 16.5483 4.51499C16.1918 4.33333 15.7251 4.33333 14.7917 4.33333H3.45835C2.52493 4.33333 2.05822 4.33333 1.7017 4.51499C1.3881 4.67478 1.13313 4.92975 0.973343 5.24335C0.791687 5.59987 0.791687 6.06658 0.791687 7V13.3333C0.791687 14.2668 0.791687 14.7335 0.973343 15.09C1.13313 15.4036 1.3881 15.6586 1.7017 15.8183C2.05822 16 2.52493 16 3.45835 16Z" stroke="#737074" stroke-width="1.5" stroke-linecap="round" stroke-linejoin="round"/>
</svg>
