<svg width="17" height="19" viewBox="0 0 17 19" fill="none" xmlns="http://www.w3.org/2000/svg">
<path d="M6.20424 15.6426L6.69128 16.738C6.83606 17.064 7.07234 17.3411 7.37147 17.5355C7.67059 17.7299 8.0197 17.8334 8.37646 17.8333C8.73323 17.8334 9.08234 17.7299 9.38146 17.5355C9.68059 17.3411 9.91687 17.064 10.0616 16.738L10.5487 15.6426C10.7221 15.2539 11.0137 14.9299 11.382 14.7167C11.7527 14.5029 12.1815 14.4118 12.607 14.4565L13.7987 14.5833C14.1534 14.6208 14.5114 14.5547 14.8293 14.3928C15.1471 14.2309 15.4112 13.9803 15.5894 13.6713C15.7679 13.3625 15.8529 13.0086 15.8342 12.6524C15.8155 12.2962 15.6938 11.9532 15.4839 11.6648L14.7783 10.6954C14.5271 10.3476 14.3928 9.929 14.395 9.49999C14.3949 9.07215 14.5304 8.65528 14.782 8.30925L15.4876 7.3398C15.6975 7.05145 15.8192 6.70838 15.8379 6.35222C15.8566 5.99605 15.7716 5.64211 15.5931 5.33332C15.4149 5.02435 15.1508 4.77373 14.833 4.61185C14.5151 4.44996 14.1571 4.38377 13.8024 4.42129L12.6107 4.54814C12.1852 4.59283 11.7564 4.50176 11.3857 4.28795C11.0167 4.07353 10.725 3.74779 10.5524 3.3574L10.0616 2.26203C9.91687 1.93597 9.68059 1.65892 9.38146 1.46449C9.08234 1.27006 8.73323 1.1666 8.37646 1.16666C8.0197 1.1666 7.67059 1.27006 7.37147 1.46449C7.07234 1.65892 6.83606 1.93597 6.69128 2.26203L6.20424 3.3574C6.03168 3.74779 5.73997 4.07353 5.37091 4.28795C5.00026 4.50176 4.57147 4.59283 4.14591 4.54814L2.95054 4.42129C2.59581 4.38377 2.23782 4.44996 1.91997 4.61185C1.60211 4.77373 1.33805 5.02435 1.1598 5.33332C0.981315 5.64211 0.896284 5.99605 0.915021 6.35222C0.933757 6.70838 1.05546 7.05145 1.26535 7.3398L1.97091 8.30925C2.22253 8.65528 2.35802 9.07215 2.35795 9.49999C2.35802 9.92783 2.22253 10.3447 1.97091 10.6907L1.26535 11.6602C1.05546 11.9485 0.933757 12.2916 0.915021 12.6478C0.896284 13.0039 0.981315 13.3579 1.1598 13.6667C1.33823 13.9755 1.60232 14.226 1.92013 14.3878C2.23794 14.5497 2.59584 14.616 2.95054 14.5787L4.14221 14.4518C4.56776 14.4072 4.99655 14.4982 5.36721 14.712C5.73765 14.9258 6.03071 15.2517 6.20424 15.6426Z" stroke="#737074" stroke-width="1.5" stroke-linecap="round" stroke-linejoin="round"/>
<path d="M8.37498 12C9.75569 12 10.875 10.8807 10.875 9.49999C10.875 8.11928 9.75569 6.99999 8.37498 6.99999C6.99426 6.99999 5.87498 8.11928 5.87498 9.49999C5.87498 10.8807 6.99426 12 8.37498 12Z" stroke="#737074" stroke-width="1.5" stroke-linecap="round" stroke-linejoin="round"/>
</svg>
